<svg width="120" height="120" viewBox="0 0 120 120" xmlns="http://www.w3.org/2000/svg">
  <!-- Claude Code 图标 - 12角橙色星形 -->
  <circle cx="60" cy="60" r="25" fill="#d4a574"/>
  <!-- 12个尖角 -->
  <polygon points="60,5 63,35 60,35 57,35" fill="#d4a574"/>
  <polygon points="85,15 73,40 68,38 75,25" fill="#d4a574"/>
  <polygon points="105,35 80,45 78,40 95,28" fill="#d4a574"/>
  <polygon points="115,60 85,55 85,50 105,50" fill="#d4a574"/>
  <polygon points="105,85 80,75 78,80 95,92" fill="#d4a574"/>
  <polygon points="85,105 73,80 68,82 75,95" fill="#d4a574"/>
  <polygon points="60,115 63,85 60,85 57,85" fill="#d4a574"/>
  <polygon points="35,105 47,80 52,82 45,95" fill="#d4a574"/>
  <polygon points="15,85 40,75 42,80 25,92" fill="#d4a574"/>
  <polygon points="5,60 35,55 35,50 15,50" fill="#d4a574"/>
  <polygon points="15,35 40,45 42,40 25,28" fill="#d4a574"/>
  <polygon points="35,15 47,40 52,38 45,25" fill="#d4a574"/>
</svg>
